# xmcd
#
# Track frame offsets: 
#        150
#        17450
#        52975
#        70450
#        84300
#        99625
#        114900
#        135237
#        149000
#        168212
#        185537
#        199925
#        214675
#        230225
#        246412
#        264262
#
# Disc length: 3786 seconds
#
# Revision: 6
# Processed by: cddbd v1.5.2PL0 Copyright (c) Steve Scherf et al.
# Submitted via: ExactAudioCopyFreeDBPlugin 1.0
#
DISCID=e00ec810
DTITLE=Various Artist - Country Rock - The Very Best of Vol2
DYEAR=1994
DGENRE=Country
TTITLE0=The Byrds - Just a Season
TTITLE1=The Allmann Brothers Band - Southbound (Live)
TTITLE2=The Charlie Daniels Band - Behind Your Eyes
TTITLE3=Loggins and Messina - My Music
TTITLE4=Ozark Mountain Daredevils - Take You Tonight
TTITLE5=Exile - Shelter From the Night
TTITLE6=Rodney Crowell - Let Freedom Ring
TTITLE7=New Riders Of The Purple Sage - Lousiana Lady
TTITLE8=T. G. Sheppard - One For the Money
TTITLE9=Don King - Over My Head
TTITLE10=Mike Reid - Walk on Faith
TTITLE11=Flying Burrito Brothers - Easy to Get On
TTITLE12=Ricky van Shelton - I Am a Simple Man
TTITLE13=Merle Haggard and George Jones - C. C. Waterback
TTITLE14=John Conlee - Domestic Life
TTITLE15=David Allan Coe and Lacy J. Dalton - Gotta Serve Somebody
EXTD=YEAR: 1994
EXTT0=
EXTT1=
EXTT2=
EXTT3=
EXTT4=
EXTT5=
EXTT6=
EXTT7=
EXTT8=
EXTT9=
EXTT10=
EXTT11=
EXTT12=
EXTT13=
EXTT14=
EXTT15=
PLAYORDER=
